<?xml version="1.0" encoding="iso-8859-1"?>
<!-- Uploaded to: SVG Repo, www.svgrepo.com, Generator: SVG Repo Mixer Tools -->
<svg fill="#000000" height="800px" width="800px" version="1.1" id="Layer_1" xmlns="http://www.w3.org/2000/svg" xmlns:xlink="http://www.w3.org/1999/xlink" 
	 viewBox="0 0 335.602 335.602" xml:space="preserve">
<g>
	<g>
		<g>
			<path d="M298.003,174.09l-19.933-27.615c-4.541-6.291-5.834-14.456-3.46-21.842c4.941-15.374,5.68-31.472,2.136-46.555
				c-5.117-21.778-17.582-41.555-35.099-55.687C223.49,7.743,201.521,0,178.115,0h-30.597C85.151,0,34.412,50.739,34.412,113.106
				v0.393c0,21.024,6.416,41.541,18.554,59.333c9.99,14.643,21.899,40.063,21.899,78.002c0,2.67,1.186,5.203,3.237,6.913
				l90.873,75.768c1.65,1.375,3.697,2.087,5.765,2.087c1.294,0,2.597-0.279,3.815-0.849c3.163-1.481,5.184-4.658,5.184-8.151
				c0-6.454,2.47-14.813,7.143-24.174c6.301-12.623,20.508-19.622,34.553-17.031l9.775,1.806c0.052,0.01,0.104,0.016,0.156,0.025
				c10.344,1.865,20.901-0.913,28.985-7.641c8.124-6.761,12.784-16.7,12.784-27.27v-8.85c0-1.013-0.171-2.018-0.505-2.973
				l-3.368-9.622l4.568-8.624c0.688-1.298,1.047-2.744,1.047-4.213v-17.339h5.517c6.333,0,12.059-3.502,14.942-9.141
				C302.221,185.917,301.71,179.225,298.003,174.09z M269.878,182.697L269.878,182.697c-4.971-0.001-9,4.028-9,8.999v24.103
				l-5.362,10.123c-1.173,2.216-1.37,4.82-0.542,7.186l4.162,11.89v7.32c0,5.207-2.295,10.103-6.298,13.434
				c-3.841,3.197-8.815,4.561-13.736,3.832l-68.105-25.862c-4.643-1.764-9.844,0.572-11.608,5.219
				c-1.765,4.646,0.572,9.844,5.219,11.608l31.712,12.042c-9.11,4.742-16.769,12.238-21.541,21.798
				c-2.67,5.349-4.754,10.464-6.245,15.321L92.82,246.583c-0.869-40.211-13.95-67.722-24.984-83.895
				c-10.09-14.79-15.423-31.799-15.423-49.189v-0.393C52.412,60.665,95.078,18,147.518,18h30.597
				c38.874,0,72.227,26.398,81.107,64.195c2.795,11.899,2.19,24.669-1.75,36.93c-4.118,12.811-1.874,26.974,6.002,37.885
				l18.541,25.687H269.878z"/>
			<path d="M235.823,93.494h-4.159V80.779c0-11.515-9.368-20.883-20.883-20.883H107.665c-11.515,0-20.883,9.368-20.883,20.883
				v43.429c0,11.515,9.368,20.883,20.883,20.883h103.115c11.515,0,20.883-9.368,20.883-20.883v-12.714h4.159c4.971,0,9-4.029,9-9
				S240.794,93.494,235.823,93.494z M210.781,127.091H107.665c-1.59,0-2.883-1.293-2.883-2.883V80.779
				c0-1.59,1.293-2.883,2.883-2.883h103.115c1.59,0,2.883,1.293,2.883,2.883v43.429h0.001
				C213.664,125.797,212.372,127.091,210.781,127.091z"/>
			<path d="M181.899,92.458l-12.725,7.404l-8.303-11.843c-2.637-3.762-7.686-4.933-11.708-2.718L128.471,96.69
				c-4.355,2.396-5.942,7.87-3.545,12.224c2.396,4.354,7.869,5.942,12.224,3.545l13.618-7.495l8.416,12.003
				c1.742,2.484,4.528,3.834,7.375,3.834c1.542,0,3.101-0.396,4.52-1.222l19.873-11.563c4.296-2.5,5.752-8.009,3.252-12.305
				C191.704,91.415,186.195,89.958,181.899,92.458z"/>
		</g>
	</g>
</g>
</svg>